<?xml version="1.0" encoding="utf-8"?>
<!-- Generator: Adobe Illustrator 26.0.0, SVG Export Plug-In . SVG Version: 6.00 Build 0)  -->
<svg version="1.1" id="图层_1" xmlns="http://www.w3.org/2000/svg" xmlns:xlink="http://www.w3.org/1999/xlink" x="0px" y="0px"
	 viewBox="0 0 64 64" style="enable-background:new 0 0 64 64;" xml:space="preserve">
<style type="text/css">
	.st0{fill:#E7643E;}
</style>
<g>
	<path class="st0" d="M62.5,31c-5.2-10.8-18.4-15-26.6-4.7c-4.6-2.8-11.7-11.7-17.3-7.6c-2.6-4.6-7.1-7.7-11.7-3.5
		c-3.2,2.7-7,8-6.3,12.3c3.1,5.6,13.3-2.5,16.7-4.9c0.5-0.4,1.1-0.5,1.4,0.1c1.4,2.2,2.6,4.4,4.3,6.3c3.8,4.3,9.2,4.1,13,0
		c6.5,4.9,13.8,10.7,22.2,11.4C63.5,40.7,64.6,35.1,62.5,31z M11.5,23c-2.4,1.7-4.8,3.5-7.6,4.5c-2.1-0.4-0.7-3,0-4.2
		c2.8-4.3,8.1-9.3,12.2-3.3C14.5,20.8,13,21.9,11.5,23z M29.8,29.3c-4.5-0.4-7.2-4.6-9.4-8.1c2.4-0.8,4.2,0.1,6.2,1.4
		c2.2,1.5,4.4,3.2,6.6,4.9c0.4,0.3,0.4,0.5,0,0.7C32.2,28.9,30.9,29.3,29.8,29.3z M58.3,37.1c-2.1,1.1-6.6-0.9-8.7-1.8
		c-4.3-2-7.9-5.1-11.8-7.6c4.7-5.1,12.4-5.8,17.5-1C57.8,29,61.8,34.3,58.3,37.1z"/>
	<path class="st0" d="M8.9,16.4c-1.6,0.3-2.9-2.9-0.8-2.8"/>
	<path class="st0" d="M8.2,16.2c-0.9,1.4-4.1,0.2-2.5-1.4"/>
</g>
</svg>
